<svg width="51" height="51" viewBox="0 0 51 51" fill="none" xmlns="http://www.w3.org/2000/svg">
<path d="M47.9555 24.2619L43.0312 26.724L36.6562 14.5154L41.6306 12.0283C42.0043 11.8414 42.4365 11.8088 42.834 11.9374C43.2316 12.0661 43.5627 12.3457 43.7561 12.7161L48.6555 22.0987C48.7534 22.2863 48.813 22.4915 48.8308 22.7024C48.8486 22.9133 48.8242 23.1257 48.7591 23.327C48.6939 23.5284 48.5893 23.7148 48.4513 23.8753C48.3133 24.0358 48.1448 24.1672 47.9555 24.2619V24.2619Z" stroke="white" stroke-width="3" stroke-linecap="round" stroke-linejoin="round"/>
<path d="M7.96874 26.5104L3.04452 24.0483C2.85521 23.9537 2.68665 23.8223 2.54868 23.6618C2.41071 23.5013 2.30609 23.3149 2.24093 23.1135C2.17576 22.9122 2.15136 22.6998 2.16915 22.4889C2.18694 22.278 2.24655 22.0728 2.34452 21.8852L7.24389 12.5025C7.4373 12.1322 7.76842 11.8525 8.16596 11.7239C8.5635 11.5953 8.99566 11.6279 9.36938 11.8147L14.3437 14.3019L7.96874 26.5104Z" stroke="white" stroke-width="3" stroke-linecap="round" stroke-linejoin="round"/>
<path d="M43.0312 26.724L39.8438 30.453L32.5131 37.7836C32.3185 37.9782 32.0768 38.1191 31.8115 38.1926C31.5463 38.2661 31.2666 38.2696 30.9996 38.2029L19.4535 35.3163C19.2369 35.2622 19.0341 35.1632 18.8583 35.0256L7.96875 26.5105" stroke="white" stroke-width="3" stroke-linecap="round" stroke-linejoin="round"/>
<path d="M39.8437 30.4529L31.0781 24.0779L28.5281 25.9904C27.4246 26.8181 26.0825 27.2654 24.7031 27.2654C23.3238 27.2654 21.9816 26.8181 20.8781 25.9904L19.7982 25.1805C19.6155 25.0435 19.4644 24.8688 19.3551 24.6684C19.2458 24.4679 19.1809 24.2463 19.1647 24.0185C19.1485 23.7907 19.1815 23.5621 19.2613 23.3482C19.3412 23.1343 19.466 22.94 19.6275 22.7786L27.4238 14.9822C27.5718 14.8342 27.7475 14.7169 27.9409 14.6368C28.1342 14.5567 28.3415 14.5154 28.5508 14.5154H36.6562" stroke="white" stroke-width="3" stroke-linecap="round" stroke-linejoin="round"/>
<path d="M14.4582 14.3019L24.6821 11.3213C25.0473 11.2149 25.4386 11.2425 25.7852 11.3994L32.6719 14.5155" stroke="white" stroke-width="3" stroke-linecap="round" stroke-linejoin="round"/>
<path d="M22.3125 42.4061L16.3082 40.905C16.0645 40.8441 15.8387 40.7264 15.6491 40.5617L11.1562 36.6563" stroke="white" stroke-width="3" stroke-linecap="round" stroke-linejoin="round"/>
</svg>
