<svg width="99" height="64" viewBox="0 0 99 64" fill="none" xmlns="http://www.w3.org/2000/svg">
<path d="M32.5251 45.2186C44.3011 45.2186 53.8475 35.9737 53.8475 24.5695C53.8475 13.1653 44.3011 3.92041 32.5251 3.92041C20.749 3.92041 11.2026 13.1653 11.2026 24.5695C11.2026 35.9737 20.749 45.2186 32.5251 45.2186Z" stroke="white" stroke-width="6" stroke-miterlimit="10"/>
<path d="M60.1672 4.68968C63.0999 3.88947 66.1757 3.70718 69.1873 4.15508C72.1989 4.60298 75.0764 5.67066 77.6261 7.28622C80.1757 8.90179 82.3383 11.0277 83.9681 13.5208C85.5978 16.0139 86.657 18.8163 87.0743 21.7392C87.4915 24.6621 87.2571 27.6376 86.3869 30.4654C85.5167 33.2932 84.0308 35.9076 82.0294 38.1324C80.028 40.3573 77.5575 42.141 74.7843 43.3633C72.0112 44.5857 68.9997 45.2183 65.9528 45.2187" stroke="white" stroke-width="6" stroke-linecap="round" stroke-linejoin="round"/>
<path d="M3 60.0686C6.33013 55.4814 10.7511 51.7374 15.8896 49.1527C21.0281 46.5681 26.7334 45.2187 32.5237 45.2185C38.314 45.2183 44.0194 46.5673 49.1581 49.1515C54.2968 51.7358 58.7181 55.4794 62.0486 60.0665" stroke="white" stroke-width="6" stroke-linecap="round" stroke-linejoin="round"/>
<path d="M65.9528 45.2185C71.7436 45.2145 77.4502 46.5618 82.5893 49.1463C87.7285 51.7309 92.1489 55.4767 95.4763 60.0665" stroke="white" stroke-width="6" stroke-linecap="round" stroke-linejoin="round"/>
</svg>
