<svg width="52" height="52" viewBox="0 0 52 52" fill="none" xmlns="http://www.w3.org/2000/svg">
<path d="M8.125 13.0001V39.0001C8.125 39.862 8.46741 40.6887 9.0769 41.2982C9.6864 41.9077 10.513 42.2501 11.375 42.2501H43.875C44.306 42.2501 44.7193 42.0789 45.024 41.7741C45.3288 41.4694 45.5 41.056 45.5 40.6251V17.8751C45.5 17.4441 45.3288 17.0308 45.024 16.726C44.7193 16.4213 44.306 16.2501 43.875 16.2501H11.375C10.513 16.2501 9.6864 15.9077 9.0769 15.2982C8.46741 14.6887 8.125 13.862 8.125 13.0001ZM8.125 13.0001C8.125 12.1381 8.46741 11.3115 9.0769 10.702C9.6864 10.0925 10.513 9.75006 11.375 9.75006H39" stroke="white" stroke-width="3" stroke-linecap="round" stroke-linejoin="round"/>
<path d="M36.5625 31.6876C37.9087 31.6876 39 30.5963 39 29.2501C39 27.9039 37.9087 26.8126 36.5625 26.8126C35.2163 26.8126 34.125 27.9039 34.125 29.2501C34.125 30.5963 35.2163 31.6876 36.5625 31.6876Z" fill="white"/>
</svg>
